<svg xmlns="http://www.w3.org/2000/svg" width="1440" height="3000" viewBox="0 0 1440 3000">
  <rect width="1440" height="3000" fill="#070a14" />
  <rect x="80" y="80" width="1280" height="120" rx="16" fill="#ffffff" opacity="0.03" />
  <circle cx="160" cy="140" r="24" fill="#22D3EE" opacity="0.6" />
  <rect x="220" y="125" width="400" height="30" rx="8" fill="#ffffff" opacity="0.1" />
  
  <rect x="80" y="260" width="400" height="2000" rx="16" fill="#ffffff" opacity="0.02" />
  <rect x="120" y="320" width="320" height="40" rx="8" fill="#22D3EE" opacity="0.2" />
  <rect x="120" y="380" width="280" height="20" rx="4" fill="#ffffff" opacity="0.05" />
  <rect x="120" y="420" width="240" height="20" rx="4" fill="#ffffff" opacity="0.05" />
  
  <rect x="520" y="260" width="840" height="800" rx="24" fill="#ffffff" opacity="0.03" />
  <rect x="580" y="340" width="720" height="60" rx="8" fill="#ffffff" opacity="0.05" />
  <rect x="580" y="440" width="720" height="120" rx="16" fill="#22D3EE" opacity="0.1" stroke="#22D3EE" stroke-opacity="0.3" stroke-width="2" />
  <rect x="580" y="600" width="720" height="400" rx="16" fill="#ffffff" opacity="0.02" />

  <rect x="520" y="1120" width="840" height="800" rx="24" fill="#ffffff" opacity="0.03" />
  <rect x="580" y="1200" width="300" height="40" rx="8" fill="#22D3EE" opacity="0.2" />
</svg>
