<svg xmlns="http://www.w3.org/2000/svg" width="1440" height="3000" viewBox="0 0 1440 3000">
  <defs>
    <linearGradient id="bg" x1="0%" y1="0%" x2="100%" y2="100%">
      <stop offset="0%" stop-color="#050816" />
      <stop offset="100%" stop-color="#02040a" />
    </linearGradient>
    <linearGradient id="card" x1="0%" y1="0%" x2="0%" y2="100%">
      <stop offset="0%" stop-color="#ffffff" stop-opacity="0.05" />
      <stop offset="100%" stop-color="#ffffff" stop-opacity="0.01" />
    </linearGradient>
  </defs>
  <rect width="1440" height="3000" fill="url(#bg)" />
  
  <!-- Header -->
  <rect x="0" y="0" width="1440" height="80" fill="#0A1029" opacity="0.8" />
  <circle cx="60" cy="40" r="16" fill="#00E5FF" />
  <rect x="100" y="30" width="200" height="20" rx="4" fill="#1e293b" />
  <rect x="1180" y="30" width="200" height="20" rx="4" fill="#1e293b" />

  <!-- Hero Section -->
  <rect x="80" y="160" width="1280" height="400" rx="24" fill="url(#card)" stroke="#1e293b" stroke-width="2" />
  <rect x="140" y="240" width="600" height="40" rx="8" fill="#00E5FF" opacity="0.2" />
  <rect x="140" y="300" width="800" height="20" rx="4" fill="#475569" opacity="0.4" />
  <rect x="140" y="340" width="700" height="20" rx="4" fill="#475569" opacity="0.4" />
  <rect x="140" y="420" width="180" height="60" rx="30" fill="#00E5FF" />

  <!-- Content Blocks -->
  <g transform="translate(80, 640)">
    <rect x="0" y="0" width="600" height="800" rx="24" fill="url(#card)" stroke="#1e293b" stroke-width="2" />
    <rect x="60" y="60" width="300" height="30" rx="4" fill="#38BDF8" opacity="0.3" />
    <rect x="60" y="140" width="480" height="400" rx="16" fill="#0A1029" stroke="#1e293b" />
    <circle cx="300" cy="340" r="120" fill="none" stroke="#00E5FF" stroke-width="16" opacity="0.8" />
    <circle cx="300" cy="340" r="120" fill="none" stroke="#38BDF8" stroke-width="16" stroke-dasharray="200 600" />
    <rect x="60" y="600" width="480" height="20" rx="4" fill="#475569" opacity="0.2" />
    <rect x="60" y="640" width="480" height="20" rx="4" fill="#475569" opacity="0.2" />
  </g>

  <g transform="translate(760, 640)">
    <rect x="0" y="0" width="600" height="360" rx="24" fill="url(#card)" stroke="#1e293b" stroke-width="2" />
    <rect x="60" y="60" width="200" height="30" rx="4" fill="#22D3EE" opacity="0.3" />
    <path d="M 60 260 L 200 140 L 350 200 L 540 100" fill="none" stroke="#00E5FF" stroke-width="6" />
    <circle cx="200" cy="140" r="8" fill="#00E5FF" />
    <circle cx="350" cy="200" r="8" fill="#00E5FF" />
    <circle cx="540" cy="100" r="8" fill="#00E5FF" />
  </g>

  <g transform="translate(760, 1080)">
    <rect x="0" y="0" width="600" height="360" rx="24" fill="url(#card)" stroke="#1e293b" stroke-width="2" />
    <rect x="60" y="60" width="480" height="20" rx="4" fill="#475569" opacity="0.2" />
    <rect x="60" y="100" width="480" height="20" rx="4" fill="#475569" opacity="0.2" />
    <rect x="60" y="140" width="300" height="20" rx="4" fill="#475569" opacity="0.2" />
    <rect x="60" y="220" width="480" height="80" rx="8" fill="#0A1029" stroke="#1e293b" />
  </g>

  <g transform="translate(80, 1520)">
    <rect x="0" y="0" width="1280" height="600" rx="24" fill="url(#card)" stroke="#1e293b" stroke-width="2" />
    <rect x="60" y="60" width="300" height="30" rx="4" fill="#00E5FF" opacity="0.2" />
    <rect x="60" y="140" width="1160" height="400" rx="16" fill="#0A1029" stroke="#1e293b" />
    <path d="M 160 400 L 400 200 L 650 300 L 900 150 L 1160 250" fill="none" stroke="#38BDF8" stroke-width="4" opacity="0.5" />
    <path d="M 160 450 L 400 280 L 650 380 L 900 200 L 1160 300" fill="none" stroke="#22D3EE" stroke-width="8" />
  </g>

  <rect x="80" y="2200" width="1280" height="400" rx="24" fill="url(#card)" stroke="#1e293b" stroke-width="2" />
</svg>
